#!OML:ASF G:\JayActor3\Patient Classification 1\Patient 1\Session 6\male.ASF
:FULLY-SPECIFIED
:DEGREES
1210
root 5.0685 16.4079 -24.2218 203.52 -45.3628 -175.639
lowerback 28.7287 -1.91771 3.39839
upperback 7.14918 -2.46791 0.601513
thorax -7.89104 -1.62866 -0.379741
lowerneck -1.83336 0.380723 2.95926
upperneck 8.83078 0.0889754 1.14284
head 3.14735 0.109554 -0.143116
rclavicle -4.17448e-014 -8.94531e-014
rhumerus -35.9762 9.32008 -86.2469
rradius 49.5246
rwrist 3.43542
rhand -10.0872 -4.85005
rfingers 7.12502
rthumb 15.8997 -34.2173
lclavicle -4.17448e-014 -8.94531e-014
lhumerus -38.1366 -17.3767 85.7086
lradius 47.4014
lwrist 23.6847
lhand -17.0498 3.94912
lfingers 7.12502
lthumb 9.18724 33.729
rfemur -54.2691 8.44683 22.9431
rtibia 42.8886
rfoot -13.2042 -6.79044
rtoes 11.2318
lfemur -46.8316 9.11954 -22.3546
ltibia 37.8436
lfoot -15.5328 1.82355
ltoes 3.61161
1211
root 5.05731 16.4153 -24.2372 203.192 -45.3803 -175.57
lowerback 28.6656 -1.95964 3.40121
upperback 6.99698 -2.49418 0.609278
thorax -8.03359 -1.63406 -0.361882
lowerneck -2.13239 0.40884 2.95677
upperneck 9.31256 0.0903442 1.16139
head 3.37071 0.113824 -0.136771
rclavicle 1.03368e-014 1.51076e-014
rhumerus -35.9875 9.27903 -86.2287
rradius 49.4905
rwrist 3.68378
rhand -10.2043 -4.88978
rfingers 7.12502
rthumb 15.787 -34.266
lclavicle 1.03368e-014 1.51076e-014
lhumerus -38.2014 -17.1915 85.5905
lradius 47.2572
lwrist 23.4597
lhand -17.3409 3.97205
lfingers 7.12502
lthumb 8.90639 33.7641
rfemur -53.7869 8.54698 23.0097
rtibia 42.7377
rfoot -13.2836 -6.90803
rtoes 11.1588
lfemur -46.3466 9.19925 -22.2576
ltibia 37.6688
lfoot -15.5505 1.79835
ltoes 3.58064
1212
root 5.04706 16.4219 -24.2509 202.906 -45.4026 -175.524
lowerback 28.5986 -1.99374 3.40572
upperback 6.86425 -2.51368 0.616856
thorax -8.15198 -1.63705 -0.348223
lowerneck -2.37784 0.422058 2.9412
upperneck 9.67328 0.079189 1.19248
head 3.54345 0.111339 -0.124348
rclavicle 2.18663e-014 1.63003e-014
rhumerus -35.9608 9.23401 -86.1938
rradius 49.4427
rwrist 3.98983
rhand -10.3837 -4.98857
rfingers 7.12502
rthumb 15.6141 -34.3784
lclavicle 2.18663e-014 1.63003e-014
lhumerus -38.232 -17.0227 85.4776
lradius 47.1381
lwrist 23.3073
lhand -17.5874 4.02591
lfingers 7.12502
lthumb 8.66854 33.8279
rfemur -53.3493 8.60482 23.0736
rtibia 42.6038
rfoot -13.3624 -6.99008
rtoes 11.1156
lfemur -45.903 9.28127 -22.1898
ltibia 37.4978
lfoot -15.5684 1.75248
ltoes 3.58759
1213
root 5.03793 16.4274 -24.2628 202.659 -45.434 -175.499
lowerback 28.5335 -2.0184 3.40409
upperback 6.75084 -2.52571 0.631609
thorax -8.24854 -1.63726 -0.326098
lowerneck -2.54527 0.424095 2.93754
upperneck 9.9031 0.0650887 1.19089
head 3.65637 0.105909 -0.124769
rclavicle 1.51076e-014 -4.77083e-014
rhumerus -35.8953 9.16634 -86.1177
rradius 49.3708
rwrist 4.29583
rhand -10.5467 -5.08937
rfingers 7.12502
rthumb 15.4572 -34.4914
lclavicle 1.51076e-014 -4.77083e-014
lhumerus -38.238 -16.8682 85.3829
lradius 47.05
lwrist 23.2326
lhand -17.7761 4.09492
lfingers 7.12502
lthumb 8.48638 33.9044
rfemur -52.9494 8.61599 23.1362
rtibia 42.4836
rfoot -13.4433 -7.03305
rtoes 11.0922
lfemur -45.4946 9.36497 -22.1488
ltibia 37.3277
lfoot -15.5915 1.68095
ltoes 3.6412
1214
root 5.03005 16.4319 -24.2728 202.441 -45.4751 -175.484
lowerback 28.4689 -2.03085 3.40522
upperback 6.65956 -2.52486 0.651746
thorax -8.31956 -1.6324 -0.304633
lowerneck -2.64936 0.410915 2.9448
upperneck 10.0147 0.0391352 1.18361
head 3.71569 0.0942468 -0.129466
rclavicle -6.67916e-014 -2.82274e-014
rhumerus -35.7898 9.0641 -86.0032
rradius 49.2861
rwrist 4.55967
rhand -10.67 -5.13591
rfingers 7.12502
rthumb 15.3384 -34.547
lclavicle -6.67916e-014 -2.82274e-014
lhumerus -38.2151 -16.7494 85.3047
lradius 46.9955
lwrist 23.2293
lhand -17.8857 4.17167
lfingers 7.12502
lthumb 8.38067 33.9854
rfemur -52.5832 8.58606 23.2034
rtibia 42.3714
rfoot -13.5271 -7.03916
rtoes 11.1148
lfemur -45.1207 9.45171 -22.1235
ltibia 37.1618
lfoot -15.6235 1.5787
ltoes 3.75121
1215
root 5.02408 16.4346 -24.2806 202.256 -45.5259 -175.481
lowerback 28.4024 -2.03534 3.40514
upperback 6.58929 -2.51768 0.673334
thorax -8.36545 -1.62535 -0.283726
lowerneck -2.69092 0.390858 2.97617
upperneck 10.0268 0.0116463 1.15831
head 3.72795 0.081418 -0.144392
rclavicle -2.66371e-014 4.37326e-015
rhumerus -35.6428 8.91054 -85.8675
rradius 49.1814
rwrist 4.78102
rhand -10.7777 -5.14497
rfingers 7.12502
rthumb 15.2346 -34.564
lclavicle -2.66371e-014 4.37326e-015
lhumerus -38.1692 -16.6677 85.239
lradius 46.9736
lwrist 23.2883
lhand -17.9279 4.24649
lfingers 7.12502
lthumb 8.33995 34.0618
rfemur -52.258 8.52213 23.2697
rtibia 42.2635
rfoot -13.6092 -7.01747
rtoes 11.1656
lfemur -44.7936 9.54184 -22.1163
ltibia 37.0087
lfoot -15.6619 1.45195
ltoes 3.88954
1216
root 5.02016 16.4359 -24.2862 202.097 -45.5854 -175.478
lowerback 28.3359 -2.03824 3.40176
upperback 6.53416 -2.51137 0.701796
thorax -8.39371 -1.61924 -0.253376
lowerneck -2.66521 0.37448 3.00869
upperneck 9.95421 -0.00360643 1.12381
head 3.69731 0.0735873 -0.16201
rclavicle -1.11319e-014 -5.28767e-014
rhumerus -35.4752 8.75138 -85.7335
rradius 49.0816
rwrist 4.95896
rhand -10.8763 -5.13882
rfingers 7.12502
rthumb 15.1397 -34.565
lclavicle -1.11319e-014 -5.28767e-014
lhumerus -38.1113 -16.6021 85.1897
lradius 46.9797
lwrist 23.3818
lhand -17.9139 4.30789
lfingers 7.12502
lthumb 8.35342 34.1227
rfemur -51.9733 8.44188 23.3355
rtibia 42.1549
rfoot -13.6943 -6.98054
rtoes 11.2581
lfemur -44.5219 9.63631 -22.1171
ltibia 36.8774
lfoot -15.7041 1.30365
ltoes 4.04588
1217
root 5.01863 16.4356 -24.2895 201.964 -45.644 -175.465
lowerback 28.2678 -2.03549 3.39594
upperback 6.49198 -2.50023 0.736764
thorax -8.40592 -1.61132 -0.216471
lowerneck -2.60295 0.361608 3.03494
upperneck 9.83641 -0.0102391 1.08818
head 3.64379 0.0693518 -0.178474
rclavicle 2.18663e-014 -1.70955e-014
rhumerus -35.2907 8.61265 -85.6095
rradius 48.9936
rwrist 5.06934
rhand -11.0014 -5.15151
rfingers 7.12502
rthumb 15.0192 -34.5868
lclavicle 2.18663e-014 -1.70955e-014
lhumerus -38.0402 -16.5625 85.1585
lradius 47.0092
lwrist 23.4821
lhand -17.8472 4.3487
lfingers 7.12502
lthumb 8.41782 34.1609
rfemur -51.7397 8.36323 23.4025
rtibia 42.0459
rfoot -13.7755 -6.94259
rtoes 11.3561
lfemur -44.3188 9.73978 -22.1199
ltibia 36.7765
lfoot -15.7457 1.14524
ltoes 4.19953
1218
root 5.01912 16.4344 -24.2906 201.854 -45.6971 -175.445
lowerback 28.1988 -2.02606 3.39246
upperback 6.46271 -2.48223 0.771071
thorax -8.40286 -1.60076 -0.184426
lowerneck -2.52853 0.349159 3.05789
upperneck 9.70834 -0.0164228 1.06295
head 3.58443 0.0654496 -0.190855
rclavicle 4.09496e-014 -5.80451e-014
rhumerus -35.0959 8.49661 -85.5065
rradius 48.9201
rwrist 5.11305
rhand -11.1715 -5.19179
rfingers 7.12502
rthumb 14.8552 -34.6392
lclavicle 4.09496e-014 -5.80451e-014
lhumerus -37.9553 -16.5783 85.1442
lradius 47.0589
lwrist 23.5858
lhand -17.7636 4.37413
lfingers 7.12502
lthumb 8.49844 34.1831
rfemur -51.5514 8.29421 23.4638
rtibia 41.9379
rfoot -13.8531 -6.90878
rtoes 11.4371
lfemur -44.1798 9.84827 -22.1269
ltibia 36.7088
lfoot -15.7835 0.990981
ltoes 4.3286
